<?xml version="1.0" encoding="UTF-8"?>
<!DOCTYPE svg PUBLIC "-//W3C//DTD SVG 1.1//EN" "http://www.w3.org/Graphics/SVG/1.1/DTD/svg11.dtd">
<!-- Creator: CorelDRAW -->
<svg xmlns="http://www.w3.org/2000/svg" xml:space="preserve" width="56.5831mm" height="56.5419mm" version="1.1" style="shape-rendering:geometricPrecision; text-rendering:geometricPrecision; image-rendering:optimizeQuality; fill-rule:evenodd; clip-rule:evenodd"
viewBox="0 0 107654.58 107576.19"
 xmlns:xlink="http://www.w3.org/1999/xlink"
 xmlns:xodm="http://www.corel.com/coreldraw/odm/2003">
 <defs>
  <style type="text/css">
   <![CDATA[
    .fil0 {fill:#00539E}
    .fil2 {fill:#CFDAE8}
    .fil1 {fill:white}
   ]]>
  </style>
 </defs>
 <g id="Capa_x0020_1">
  <metadata id="CorelCorpID_0Corel-Layer"/>
  <g id="_2307181094384">
   <path class="fil0" d="M37576.96 89526.11l17012.79 -9659.65c5699.6,-3304.8 11749.46,-6317.56 16976.64,-9465.97 403.16,2985.17 438.36,10136.82 105.97,13158.71 -569.83,5179.43 -1998.29,5977.57 -7305.38,6114.36 -7987.27,205.86 -18969.8,435.31 -26790.02,-147.45zm39083.05 -4167.06l-66.78 -39070.12c3701.11,1641.94 7216.15,3911.92 10631.88,5688.37 8468.06,4403.74 2244.87,11101.44 -4312.99,22668.25 -1758.76,3102.18 -4367.78,8319.66 -6252.11,10713.5zm-61917.59 -26465.82c786.91,-1211.57 -312.22,-1093.61 4203.97,1617.2l28245.32 16824.43c1003.43,861.68 450.72,338.09 1238.02,1246.77 -3715.57,1371.39 -7027.04,3943.5 -10757.64,5875.21 -6383.58,3305.37 -8101.43,-417.05 -10264.87,-4226.99 -1340.57,-2360.74 -12020.58,-21106.79 -12664.8,-21336.62zm15528.96 -35868.81l160.01 38688.27c-2822.5,-1022.07 -9183.05,-4577.07 -11326.7,-6066.04 -6719.77,-4668.01 -2098.18,-10321.18 4511.05,-21511.47l4598 -8113.03c236.3,-420.85 525.5,-994.1 742.96,-1327.25 979.07,-1498.86 186.64,-585.05 1314.69,-1670.48zm28178.35 7098.19c2602.56,-2112.26 7573.84,-5067.17 10367.04,-6489.17 8519.43,-4337.15 9832.41,2992.78 17271.92,15377.89 2108.07,3509.33 4726.04,7323.84 6132.63,10697.33l-33771.59 -19586.05zm-23193.36 7774.18c-122.53,-8734.8 -2568.12,-19061.88 6883.01,-19381.71 6552.15,-221.84 21325.4,-612.83 27284.89,234.78l-34167.9 19146.93zm71322.67 52761.36l132.23 -89848.03 -91440.69 206.62c-8387.2,1255.14 -14228.73,7336.02 -14894.25,15413.28 -737.44,8952.46 -188.74,79842.86 -44.71,90645.97 20218.66,-508.75 41030.36,-53.84 61314.47,-53.84 18251.95,0 43224.24,5216.34 44932.96,-16364.01z"/>
   <path class="fil1" d="M69424.27 18749.86c-5959.49,-847.6 -20732.74,-456.62 -27284.89,-234.78 -9451.13,319.83 -7005.54,10646.91 -6883.01,19381.71l34167.9 -19146.93z"/>
   <path class="fil1" d="M37576.96 89526.11c7820.23,582.76 18802.75,353.31 26790.02,147.45 5307.09,-136.8 6735.56,-934.93 7305.38,-6114.36 332.38,-3021.89 297.18,-10173.54 -105.97,-13158.71 -5227.18,3148.41 -11277.05,6161.17 -16976.64,9465.97l-17012.79 9659.65z"/>
   <path class="fil1" d="M76660.02 85359.05c1884.33,-2393.84 4493.35,-7611.32 6252.11,-10713.5 6557.86,-11566.81 12781.05,-18264.51 4312.99,-22668.25 -3415.72,-1776.45 -6930.76,-4046.43 -10631.88,-5688.37l66.78 39070.12z"/>
   <path class="fil1" d="M92221.32 49708.65c-1406.59,-3373.49 -4024.55,-7187.99 -6132.63,-10697.33 -7439.52,-12385.12 -8752.5,-19715.04 -17271.92,-15377.89 -2793.2,1422 -7764.48,4376.91 -10367.04,6489.17l33771.59 19586.05z"/>
   <path class="fil1" d="M30271.39 23024.41c-1128.05,1085.43 -335.62,171.61 -1314.69,1670.48 -217.47,333.14 -506.66,906.4 -742.96,1327.25l-4598 8113.03c-6609.23,11190.29 -11230.81,16843.46 -4511.05,21511.47 2143.65,1488.97 8504.21,5043.96 11326.7,6066.04l-160.01 -38688.27z"/>
   <path class="fil1" d="M18946.4 60510.43c-4516.18,-2710.81 -3417.06,-2828.77 -4203.97,-1617.2 644.22,229.83 11324.23,18975.89 12664.8,21336.62 2163.44,3809.94 3881.29,7532.36 10264.87,4226.99 3730.6,-1931.7 7042.07,-4503.82 10757.64,-5875.21 -787.29,-908.68 -234.59,-385.08 -1238.02,-1246.77l-28245.32 -16824.43z"/>
   <path class="fil2" d="M106711.27 810.12l-132.23 89848.03c964.23,-1399.93 771.5,-39449.68 771.5,-44665.64 0,-3112.07 1004.57,-42506.58 -639.27,-45182.39 -3762.95,-1302.9 -89332.99,-886.42 -91440.69,206.62l91440.69 -206.62z"/>
  </g>
 </g>
</svg>
