<svg height="40" viewBox="0 0 232 40" width="232" xmlns="http://www.w3.org/2000/svg"><g fill="#fff" fill-rule="evenodd"><path d="m21.3462608 10.7930126 4.0849101-2.41090145c1.8463464-.86854624 2.6344379-.28387748 3.305047.74832115l5.3529876 9.0680798zm11.974967 11.5315513-5.1646502 9.1773338.0237707-14.7383154 4.1347372 2.3263325c1.6749229 1.1620235 1.562469 2.1384523 1.0061423 3.2346491zm-6.9250563 8.116336c-.1919944 2.0291983-1.0971111 2.4109015-2.3254183 2.4634714h-10.5308945l12.8563128-7.2071053zm-15.9035387-.2217079-5.28761807-9.1064787 12.68991767 7.4964683-4.102281 2.3830166c-1.8522892.8525467-2.6367236.2623924-3.3000186-.7730062zm-4.52284025-13.10042 5.12899405-9.19744748.0347419 14.73877248-4.1420513-2.3098759c-1.68132266-1.1565378-1.57298294-2.1315953-1.02168465-3.2314491zm6.90905675-8.08433691c.1915373-2.03102681 1.0966539-2.41181576 2.3254182-2.46575705h10.5304375l-12.8558557 7.20939086zm-6.52826779-9.03425224c-3.51029818 0-6.3463302 2.895916-6.3463302 6.40849983l-.00411417 32.91287392h32.92978766c3.5102982 0 6.3563871-2.9676854 6.3563871-6.4807263v-6.0505674l.0123425-.0201137.0169138-26.74802413z"/><path d="m64.6773468 10.6048581h-3.1820791-13.2563012c-1.7572062 0-3.1770507 1.449558-3.1770507 3.2076784v11.686061c0 1.7549205 1.4198445 3.1743079 3.1770507 3.1743079h13.2563012c1.7572061 0 3.1752221-1.4193874 3.1752221-3.1743079l.010514-1.1313957-14.5312356-.0114283v-9.4031558h9.4337835l5.0869381-.0013714z"/><path d="m135.617963 10.6048581h-3.181165-13.256758c-1.757663 0-3.176136 1.449558-3.176136 3.2076784v11.686061c0 1.7549205 1.418473 3.1743079 3.176136 3.1743079h13.256758c1.757664 0 3.174766-1.4193874 3.174766-3.1743079l.02377-1.1432811-14.544949.0004571v-9.4031558h9.433783l5.087396-.0013714z"/><path d="m155.938334 21.3650488c0 2.980485-.040685 2.9905419-2.270563 2.9905419h-3.832574-3.508927c-2.530212 0-2.566326-.0534842-2.566326-2.9238009v-6.4788978h6.075253 6.103137zm1.942344-10.7603735h-8.045481-8.017596c-1.725665 0-3.143681 1.450015-3.143681 3.1770507v11.7454878c0 1.7265785 1.418016 3.1455088 3.143681 3.1455088h8.017596 8.045481c1.727492 0 3.145508-1.4189303 3.145508-3.1455088v-11.7454878c0-1.7270357-1.418016-3.1770507-3.145508-3.1770507z"/><path d="m191.168581 15.1223499v13.5506927h14.405067c4.57861 0 4.032798-2.9315721 4.032798-3.9089152v-.4082167h-13.348642v-2.7427776h9.108765v-4.3171319h-9.108765v-2.3437035h13.348642l-.000914-4.3514166-3.804233.0045713h-10.163819c-3.233735 0-4.468899 2.1155957-4.468899 4.5168975"/><path d="m101.878051 20.8411783h-2.3427896l2.3427896-4.0689105 2.343703 4.0689105zm1.341675-10.236503c-2.945286 0-3.827089.3414758-6.1296508 4.2796472-2.010456 3.4376146-7.9759972 13.7884001-7.9759972 13.7884001l1.0175705-.0009143 4.8556305-.0041141 1.7325212-2.9649426.1014828-.1759949h5.056768 5.056767s.064913.1138253.086855.151767c1.792862 2.9635712 2.819575 2.9941989 6.108623 2.9941989h1.480642s-1.903487-3.3114468-2.537526-4.4145005c-1.963372-3.4124725-7.851658-13.6535468-7.851658-13.6535468z"/><path d="m83.1194633 17.2950869h-11.0063093v-6.6900917h-.7940341c-2.9882562 0-4.3235318 1.9775427-4.3235318 3.6053812v14.4626662h.3620467l4.7509479-.0013714.0045713-4.3591878v-2.3002762h11.0063093v6.6608354h1.2598491c3.6126953 0 3.827089-3.1907646 3.827089-4.2545052v-13.8135422h-5.0869381z"/><path d="m226.397913 18.0664931h-4.468899-4.47027v-3.5139552h4.47027 4.468899zm5.087852 1.0788258v-5.6711497c0-1.572983-1.264877-2.8694025-2.836489-2.8694025h-6.720262-9.651834v18.0680473h1.410702c3.569725 0 3.676693-1.9546861 3.676693-4.0689105v-2.5914677h4.564439 3.299104c.645924 0 1.169795.5252419 1.169795 1.1716231v5.4887551h5.087852v-3.915315c0-1.2333356-.463072-2.3747882-1.264877-3.2378489.772092-.4927857 1.264877-1.3864741 1.264877-2.3743312z"/><path d="m175.990415 23.0268064-7.831544-12.4243254h-1.183509c-1.466929 0-3.164708.645467-3.164708 3.1875647v14.8791113h1.277677l3.848117.0063998-.007314-4.1745075v-4.5877526l5.548639 8.7558603h3.05454l5.517555-8.7252326v8.7252326h1.229221c4.327646 0 3.889716-2.8291751 3.889716-3.7736048v-14.2930712h-4.318046z"/></g></svg>