<?xml version="1.0" encoding="UTF-8"?>
<!DOCTYPE svg PUBLIC "-//W3C//DTD SVG 1.1//EN" "http://www.w3.org/Graphics/SVG/1.1/DTD/svg11.dtd">
<!-- Creator: CorelDRAW -->
<svg xmlns="http://www.w3.org/2000/svg" xml:space="preserve" width="61.2472mm" height="10.4038mm" version="1.1" style="shape-rendering:geometricPrecision; text-rendering:geometricPrecision; image-rendering:optimizeQuality; fill-rule:evenodd; clip-rule:evenodd"
viewBox="0 0 6727.2 1142.72"
 xmlns:xlink="http://www.w3.org/1999/xlink"
 xmlns:xodm="http://www.corel.com/coreldraw/odm/2003">
 <defs>
  <style type="text/css">
   <![CDATA[
    .str0 {stroke:#0C4F9E;stroke-width:8.37;stroke-miterlimit:22.9256}
    .fil0 {fill:#0C4F9E}
   ]]>
  </style>
 </defs>
 <g id="Capa_x0020_1">
  <metadata id="CorelCorpID_0Corel-Layer"/>
  <g id="_2307182921456">
   <g>
    <path class="fil0" d="M620.34 313.65l118.71 -70.06c53.66,-25.24 76.56,-8.25 96.05,21.75l155.56 263.53 -370.33 -215.21zm348.01 335.11l-150.09 266.71 0.69 -428.31 120.16 67.6c48.68,33.77 45.41,62.15 29.24,94zm-201.25 235.87c-5.58,58.97 -31.89,70.06 -67.58,71.59l-306.03 0 373.62 -209.45 -0.01 137.86zm-462.17 -6.45l-153.66 -264.64 368.78 217.85 -119.22 69.25c-53.83,24.78 -76.62,7.62 -95.9,-22.46zm-131.44 -380.71l149.05 -267.29 1.01 428.32 -120.37 -67.13c-48.86,-33.61 -45.71,-61.95 -29.69,-93.91l0 0.01zm200.79 -234.94c5.57,-59.03 31.87,-70.09 67.58,-71.66l306.02 0 -373.6 209.51 0 -137.86zm-189.72 -262.54c-102.02,0 -184.43,84.16 -184.43,186.24l-0.12 956.48 956.96 0c102.02,0 184.72,-86.24 184.72,-188.34l0 -175.84 0.36 -0.58 0.49 -777.33 -958 -0.64z"/>
    <path class="fil0" d="M1879.58 308.18l-92.47 0 -385.24 0c-51.06,0 -92.33,42.12 -92.33,93.22l0 339.6c0,51 41.27,92.25 92.33,92.25l385.24 0c51.06,0 92.27,-41.24 92.27,-92.25l0.31 -32.87 -422.29 -0.33 0 -273.26 274.14 -0.01 147.83 -0.04 0.21 -126.3z"/>
    <path class="fil0" d="M3941.19 308.18l-92.45 0 -385.25 0c-51.07,0 -92.31,42.12 -92.31,93.22l0 339.6c0,51 41.22,92.25 92.31,92.25l385.25 0c51.07,0 92.26,-41.24 92.26,-92.25l0.69 -33.23 -422.7 0.01 0 -273.26 274.16 0 147.84 -0.04 0.19 -126.3z"/>
    <path class="fil0" d="M4531.71 620.89c0,86.62 -1.19,86.9 -65.99,86.9l-111.37 0 -101.97 0c-73.54,0 -74.58,-1.56 -74.58,-84.97l0 -188.28 176.55 0 177.36 0 0 186.35zm56.45 -312.71l-233.81 0 -233 0c-50.15,0 -91.36,42.13 -91.36,92.33l0 341.34c0,50.17 41.21,91.41 91.36,91.41l233 0 233.81 0c50.21,0 91.41,-41.23 91.41,-91.41l0 -341.34c0,-50.18 -41.21,-92.33 -91.41,-92.33z"/>
    <g>
     <path class="fil0" d="M5555.55 439.47l0 393.8 418.62 -0.01c133.06,0 117.2,-85.19 117.2,-113.59l0 -11.86 -387.92 0 0 -79.71 264.71 0 0 -125.46 -264.71 0 0 -68.11 387.92 0 -0.02 -126.46 -110.55 0.13 -295.38 0c-93.98,0 -129.87,61.49 -129.87,131.27l0.01 0zm0 0l0 0 0 0z"/>
    </g>
    <path class="fil0 str0" d="M2960.67 605.66l-68.09 0 68.09 -118.25 68.11 118.25 -68.11 0zm38.99 -297.48c-85.6,0 -111.22,9.92 -178.13,124.37 -58.42,99.9 -231.79,400.71 -231.79,400.71l29.57 -0.02 141.11 -0.12 50.35 -86.17 2.95 -5.12 146.95 0 146.95 0c0,0 1.89,3.31 2.53,4.42 52.11,86.12 81.94,87.01 177.52,87.01l43.03 0c0,0 -55.31,-96.24 -73.74,-128.29 -57.06,-99.17 -228.17,-396.79 -228.17,-396.79l-29.12 0z"/>
    <path class="fil0 str0" d="M2415.53 502.6l-319.86 0 0 -194.42 -23.08 0c-86.84,0 -125.64,57.47 -125.64,104.77l0 420.3 10.51 0 138.06 -0.04 0.13 -126.69 0 -66.85 319.87 0.01 0 193.57 36.61 0c104.99,0 111.22,-92.72 111.22,-123.64l0 -401.43 -147.83 0 0 194.42z"/>
    <path class="fil0" d="M6579.33 525.02l-129.86 0 -129.91 0 0 -102.12 129.91 0 129.86 0 0 102.12zm147.86 31.36l0 -164.81c0,-45.71 -36.76,-83.39 -82.43,-83.39l-195.29 0 -280.5 0 0 525.07 41 0c103.74,0 106.85,-56.81 106.85,-118.25l0 -75.32 132.65 0.01 95.87 0c18.77,0 33.99,15.27 33.99,34.05l0 159.51 147.86 0 0 -113.78c0,-35.84 -13.46,-69.01 -36.76,-94.1 22.44,-14.32 36.76,-40.29 36.76,-69z"/>
    <path class="fil0" d="M5114.45 669.17l-227.59 -361.07 -34.4 0.01c-42.63,0 -91.97,18.76 -91.97,92.64l0 432.41 37.14 -0.01 111.82 0.19 -0.21 -121.31 0 -133.32 161.25 254.46 88.76 -0.01 160.35 -253.57 0 253.57 35.72 0c125.76,0 113.04,-82.22 113.04,-109.66l0 -415.37 -125.49 0 -228.43 361.06z"/>
   </g>
  </g>
 </g>
</svg>
