<svg version="1.1" id="Layer_1" xmlns="http://www.w3.org/2000/svg" xmlns:xlink="http://www.w3.org/1999/xlink" x="0px" y="0px"
	 width="100%" viewBox="0 0 668 668" enable-background="new 0 0 668 668" xml:space="preserve">
<path fill="#00539E" opacity="1.000000" stroke="none" 
	d="
M0.999999,544.000000 
	C1.000000,409.645782 1.000000,275.291534 1.395594,140.279236 
	C1.860508,135.970062 1.772448,132.307907 2.027362,128.669815 
	C2.954275,115.441078 3.219106,102.104210 5.175245,89.023720 
	C8.159248,69.070007 18.040705,52.063278 31.948925,37.836964 
	C41.718708,27.843740 53.374657,19.880398 66.642082,14.833838 
	C76.764412,10.983587 86.957932,7.245100 98.179276,7.119582 
	C98.900246,7.134494 99.441208,7.021184 100.404861,6.984633 
	C102.540909,7.008997 104.254272,6.956603 106.417557,7.055064 
	C108.032974,7.232192 109.198532,7.283803 110.363960,7.281148 
	C290.773895,6.870341 471.183838,6.456254 651.593750,6.030177 
	C653.084229,6.026658 654.574402,5.858718 656.482971,5.820649 
	C658.586426,5.830766 660.271606,5.787780 662.212769,5.846725 
	C662.652405,5.949821 662.836060,5.950986 663.205811,6.290340 
	C663.347534,7.395485 663.303040,8.162441 663.150208,9.391428 
	C663.026672,10.519810 662.999146,11.186141 662.997986,11.852517 
	C662.688782,192.955536 662.380493,374.058533 662.089478,555.161560 
	C662.086853,556.811279 662.317444,558.461365 662.433228,560.500488 
	C662.616638,562.370972 663.210693,563.933777 662.931274,565.320557 
	C660.766174,576.063416 659.181702,587.000366 656.001404,597.446106 
	C648.379944,622.479065 631.683044,640.252441 608.539795,651.625549 
	C586.719727,662.348389 563.043945,666.279968 538.969604,668.022644 
	C536.635010,668.191650 534.322693,668.666931 532.000000,669.000000 
	C508.312439,669.000000 484.624878,669.000000 460.279907,668.604126 
	C450.372986,667.805847 441.125793,667.333435 431.873260,667.018616 
	C419.955902,666.613220 408.035950,666.143494 396.114075,666.034363 
	C350.547577,665.617371 304.980316,665.152283 259.412537,665.043030 
	C191.105225,664.879333 122.797241,665.000366 54.489552,665.001587 
	C53.156921,665.001648 51.824291,665.025818 50.491661,665.026001 
	C34.786804,665.027771 19.081945,665.027161 1.997751,665.027161 
	C1.997751,658.680725 1.997654,651.816223 1.997767,644.951782 
	C1.998296,612.963806 2.013836,580.975769 1.956890,548.987854 
	C1.953929,547.324707 1.333146,545.662598 0.999999,544.000000 
M281.421112,201.929749 
	C331.202789,173.976410 380.984436,146.023087 430.766113,118.069756 
	C422.344727,116.417526 414.274933,115.154793 406.208313,115.174843 
	C357.590424,115.295654 308.969971,115.471031 260.357422,116.140083 
	C239.819916,116.422745 226.508347,126.716942 221.225006,146.582489 
	C218.610809,156.411972 217.573029,166.906006 217.500473,177.111313 
	C217.377487,194.409348 218.572357,211.717316 219.247482,229.019791 
	C219.335953,231.287048 219.626297,233.546432 219.828293,235.868607 
	C220.649994,235.700882 221.010101,235.711472 221.279572,235.560410 
	C241.102661,224.447418 260.918579,213.321594 281.421112,201.929749 
M535.018188,431.559204 
	C544.294983,414.361633 554.250244,397.488739 562.676514,379.884064 
	C573.157776,357.985870 568.097412,338.869904 549.171570,327.966339 
	C526.487366,314.897430 503.268768,302.755463 480.262115,290.247925 
	C479.085663,289.608337 477.725647,289.306396 476.600891,288.901215 
	C476.600891,369.521698 476.600891,449.580353 476.600891,529.639038 
	C477.162750,529.858032 477.724609,530.077087 478.286469,530.296082 
	C497.079742,497.597137 515.872986,464.898193 535.018188,431.559204 
M289.499908,559.023010 
	C314.991394,558.977234 340.485748,559.147705 365.973297,558.807678 
	C382.285919,558.590149 398.605072,557.890564 414.890076,556.895874 
	C426.989197,556.156860 437.551147,551.929993 441.719025,539.253052 
	C443.875183,532.695007 445.517426,525.703674 445.796753,518.843140 
	C446.595764,499.218964 446.753143,479.561890 446.789978,459.917053 
	C446.803162,452.880432 445.750427,445.841797 445.118988,437.993317 
	C374.538239,477.622681 304.809692,516.773560 235.081161,555.924438 
	C235.250031,556.454712 235.418884,556.985046 235.587738,557.515320 
	C253.225159,558.013672 270.862549,558.512024 289.499908,559.023010 
M422.318390,222.132950 
	C472.272278,251.157608 522.226135,280.182281 572.180054,309.206940 
	C569.765808,302.286621 566.965515,295.948456 563.484253,290.009460 
	C548.970886,265.249786 534.245117,240.614655 519.612000,215.925110 
	C508.372498,196.961395 497.470612,177.785965 485.731476,159.137207 
	C482.303284,153.691254 477.035583,148.994797 471.706726,145.237320 
	C459.976166,136.965881 447.140717,138.746078 435.268921,144.593292 
	C420.422058,151.905823 406.036896,160.218048 391.796661,168.678131 
	C382.170105,174.397263 373.137360,181.115982 363.184052,187.829346 
	C383.306976,199.549118 402.470825,210.710327 422.318390,222.132950 
M110.220772,276.787048 
	C107.799614,282.412842 105.120026,287.943298 103.003967,293.681610 
	C95.535950,313.933228 97.337082,331.196960 116.810196,344.065155 
	C135.702866,356.549805 155.996796,366.926453 175.784637,378.034149 
	C180.136612,380.477081 184.949661,382.098633 189.021851,383.868683 
	C189.021851,303.912720 189.021851,224.351013 189.021851,144.789291 
	C188.356766,144.579361 187.691681,144.369415 187.026581,144.159470 
	C182.900452,151.076996 178.685684,157.943405 174.663010,164.920563 
	C153.293213,201.985657 131.971634,239.078537 110.220772,276.787048 
M274.739624,469.774445 
	C214.912277,434.020020 155.084930,398.265564 95.116203,362.426666 
	C93.041824,364.435547 92.258018,366.549194 94.301003,369.879059 
	C109.577866,394.779083 124.832031,419.697113 139.713501,444.834381 
	C153.323349,467.823730 166.269470,491.205933 179.875153,514.197815 
	C187.466675,527.026489 197.988449,536.129028 214.129211,532.747986 
	C222.098206,531.078674 229.959427,527.800293 237.207535,523.990784 
	C258.473969,512.813354 279.409454,501.006165 300.463318,489.425232 
	C300.708344,489.290436 300.803619,488.883362 301.087219,488.402740 
	C294.585663,479.470612 284.059570,476.060516 274.739624,469.774445 
z"/>
<path fill="#FFFFFF" opacity="1.000000" stroke="none" 
	d="
M532.468628,669.000000 
	C534.322693,668.666931 536.635010,668.191650 538.969604,668.022644 
	C563.043945,666.279968 586.719727,662.348389 608.539795,651.625549 
	C631.683044,640.252441 648.379944,622.479065 656.001404,597.446106 
	C659.181702,587.000366 660.766174,576.063416 662.931274,565.320557 
	C663.210693,563.933777 662.616638,562.370972 662.778931,560.357666 
	C663.745117,556.447327 664.742371,553.087708 664.909058,549.687500 
	C665.729675,532.945557 666.591919,516.198425 666.948059,499.442657 
	C667.520508,472.513062 667.948547,445.575714 668.007751,418.640717 
	C668.140320,358.339569 667.998596,298.037811 668.026367,237.736298 
	C668.027222,235.824051 668.661194,233.912094 669.000000,232.000000 
	C669.000000,377.555573 669.000000,523.111145 669.000000,669.000000 
	C623.646301,669.000000 578.291809,669.000000 532.468628,669.000000 
z"/>
<path fill="#FFFFFF" opacity="1.000000" stroke="none" 
	d="
M97.999268,6.991358 
	C86.957932,7.245100 76.764412,10.983587 66.642082,14.833838 
	C53.374657,19.880398 41.718708,27.843740 31.948925,37.836964 
	C18.040705,52.063278 8.159248,69.070007 5.175245,89.023720 
	C3.219106,102.104210 2.954275,115.441078 2.027362,128.669815 
	C1.772448,132.307907 1.860508,135.970062 1.395594,139.810577 
	C1.000000,93.717514 1.000000,47.435024 1.000000,1.000000 
	C87.354172,1.000000 173.708420,1.000000 260.210144,1.264948 
	C259.215332,1.690004 258.075073,1.973663 256.930511,1.991956 
	C234.507401,2.350349 212.083542,2.662844 189.660339,3.016203 
	C169.897659,3.327636 150.134415,3.620933 130.373932,4.040776 
	C123.252289,4.192086 116.133118,4.617626 109.025566,5.104190 
	C107.970131,5.176443 106.985184,6.278552 105.967628,6.904208 
	C104.254272,6.956603 102.540909,7.008997 100.247299,6.793686 
	C99.111122,6.681105 98.555191,6.836231 97.999268,6.991358 
z"/>
<path fill="#CAD7E6" opacity="1.000000" stroke="none" 
	d="
M669.000000,231.531342 
	C668.661194,233.912094 668.027222,235.824051 668.026367,237.736298 
	C667.998596,298.037811 668.140320,358.339569 668.007751,418.640717 
	C667.948547,445.575714 667.520508,472.513062 666.948059,499.442657 
	C666.591919,516.198425 665.729675,532.945557 664.909058,549.687500 
	C664.742371,553.087708 663.745117,556.447327 662.784912,559.968445 
	C662.317444,558.461365 662.086853,556.811279 662.089478,555.161560 
	C662.380493,374.058533 662.688782,192.955536 662.997986,11.852517 
	C662.999146,11.186141 663.026672,10.519810 663.486328,9.524508 
	C664.583191,11.024196 665.664001,12.817799 665.816895,14.687281 
	C666.663940,25.046062 667.253296,35.425648 668.010925,45.792259 
	C668.163147,47.874477 668.661316,49.931412 669.000000,52.000000 
	C669.000000,111.687561 669.000000,171.375122 669.000000,231.531342 
z"/>
<path fill="#CBD8E7" opacity="1.000000" stroke="none" 
	d="
M106.417557,7.055065 
	C106.985184,6.278552 107.970131,5.176443 109.025566,5.104190 
	C116.133118,4.617626 123.252289,4.192086 130.373932,4.040776 
	C150.134415,3.620933 169.897659,3.327636 189.660339,3.016203 
	C212.083542,2.662844 234.507401,2.350349 256.930511,1.991956 
	C258.075073,1.973663 259.215332,1.690004 260.678802,1.264948 
	C365.020905,1.000000 469.041779,1.000000 573.852539,1.264966 
	C575.614563,1.688269 576.584412,1.968795 577.559082,1.986897 
	C596.913208,2.346340 616.269165,2.619894 635.621765,3.043951 
	C641.556213,3.173988 647.487488,3.632391 653.406128,4.113751 
	C654.330994,4.188973 655.180420,5.192997 656.064697,5.767543 
	C654.574402,5.858718 653.084229,6.026658 651.593750,6.030177 
	C471.183838,6.456254 290.773895,6.870341 110.363960,7.281148 
	C109.198532,7.283803 108.032974,7.232192 106.417557,7.055065 
z"/>
<path fill="#FFFFFF" opacity="1.000000" stroke="none" 
	d="
M0.999999,544.468628 
	C1.333146,545.662598 1.953929,547.324707 1.956890,548.987854 
	C2.013836,580.975769 1.998296,612.963806 1.997767,644.951782 
	C1.997654,651.816223 1.997751,658.680725 1.997751,665.027161 
	C19.081945,665.027161 34.786804,665.027771 50.491661,665.026001 
	C51.824291,665.025818 53.156921,665.001648 54.489552,665.001587 
	C122.797241,665.000366 191.105225,664.879333 259.412537,665.043030 
	C304.980316,665.152283 350.547577,665.617371 396.114075,666.034363 
	C408.035950,666.143494 419.955902,666.613220 431.873260,667.018616 
	C441.125793,667.333435 450.372986,667.805847 459.811279,668.604126 
	C307.114655,669.000000 154.229294,669.000000 1.000000,669.000000 
	C1.000000,627.646423 1.000000,586.291870 0.999999,544.468628 
z"/>
<path fill="#FFFFFF" opacity="1.000000" stroke="none" 
	d="
M656.482971,5.820646 
	C655.180420,5.192997 654.330994,4.188973 653.406128,4.113751 
	C647.487488,3.632391 641.556213,3.173988 635.621765,3.043951 
	C616.269165,2.619894 596.913208,2.346340 577.559082,1.986897 
	C576.584412,1.968795 575.614563,1.688269 574.321228,1.264966 
	C605.571472,1.000000 637.143005,1.000000 669.000000,1.000000 
	C669.000000,17.686476 669.000000,34.374580 669.000000,51.531342 
	C668.661316,49.931412 668.163147,47.874477 668.010925,45.792259 
	C667.253296,35.425648 666.663940,25.046062 665.816895,14.687281 
	C665.664001,12.817799 664.583191,11.024196 663.594727,9.062478 
	C663.303040,8.162441 663.347534,7.395485 663.129395,6.130147 
	C662.563538,5.669442 662.260132,5.707119 661.956787,5.744795 
	C660.271606,5.787780 658.586426,5.830766 656.482971,5.820646 
z"/>
<path fill="#FEFEFF" opacity="1.000000" stroke="none" 
	d="
M281.078064,202.063278 
	C260.918579,213.321594 241.102661,224.447418 221.279572,235.560410 
	C221.010101,235.711472 220.649994,235.700882 219.828293,235.868607 
	C219.626297,233.546432 219.335953,231.287048 219.247482,229.019791 
	C218.572357,211.717316 217.377487,194.409348 217.500473,177.111313 
	C217.573029,166.906006 218.610809,156.411972 221.225006,146.582489 
	C226.508347,126.716942 239.819916,116.422745 260.357422,116.140083 
	C308.969971,115.471031 357.590424,115.295654 406.208313,115.174843 
	C414.274933,115.154793 422.344727,116.417526 430.766113,118.069756 
	C380.984436,146.023087 331.202789,173.976410 281.078064,202.063278 
z"/>
<path fill="#FDFEFE" opacity="1.000000" stroke="none" 
	d="
M534.842224,431.879211 
	C515.872986,464.898193 497.079742,497.597137 478.286469,530.296082 
	C477.724609,530.077087 477.162750,529.858032 476.600891,529.639038 
	C476.600891,449.580353 476.600891,369.521698 476.600891,288.901215 
	C477.725647,289.306396 479.085663,289.608337 480.262115,290.247925 
	C503.268768,302.755463 526.487366,314.897430 549.171570,327.966339 
	C568.097412,338.869904 573.157776,357.985870 562.676514,379.884064 
	C554.250244,397.488739 544.294983,414.361633 534.842224,431.879211 
z"/>
<path fill="#FEFEFF" opacity="1.000000" stroke="none" 
	d="
M288.999939,559.016724 
	C270.862549,558.512024 253.225159,558.013672 235.587738,557.515320 
	C235.418884,556.985046 235.250031,556.454712 235.081161,555.924438 
	C304.809692,516.773560 374.538239,477.622681 445.118988,437.993317 
	C445.750427,445.841797 446.803162,452.880432 446.789978,459.917053 
	C446.753143,479.561890 446.595764,499.218964 445.796753,518.843140 
	C445.517426,525.703674 443.875183,532.695007 441.719025,539.253052 
	C437.551147,551.929993 426.989197,556.156860 414.890076,556.895874 
	C398.605072,557.890564 382.285919,558.590149 365.973297,558.807678 
	C340.485748,559.147705 314.991394,558.977234 288.999939,559.016724 
z"/>
<path fill="#FEFEFF" opacity="1.000000" stroke="none" 
	d="
M421.976532,222.002228 
	C402.470825,210.710327 383.306976,199.549118 363.184052,187.829346 
	C373.137360,181.115982 382.170105,174.397263 391.796661,168.678131 
	C406.036896,160.218048 420.422058,151.905823 435.268921,144.593292 
	C447.140717,138.746078 459.976166,136.965881 471.706726,145.237320 
	C477.035583,148.994797 482.303284,153.691254 485.731476,159.137207 
	C497.470612,177.785965 508.372498,196.961395 519.612000,215.925110 
	C534.245117,240.614655 548.970886,265.249786 563.484253,290.009460 
	C566.965515,295.948456 569.765808,302.286621 572.180054,309.206940 
	C522.226135,280.182281 472.272278,251.157608 421.976532,222.002228 
z"/>
<path fill="#FEFEFF" opacity="1.000000" stroke="none" 
	d="
M110.427063,276.474426 
	C131.971634,239.078537 153.293213,201.985657 174.663010,164.920563 
	C178.685684,157.943405 182.900452,151.076996 187.026581,144.159470 
	C187.691681,144.369415 188.356766,144.579361 189.021851,144.789291 
	C189.021851,224.351013 189.021851,303.912720 189.021851,383.868683 
	C184.949661,382.098633 180.136612,380.477081 175.784637,378.034149 
	C155.996796,366.926453 135.702866,356.549805 116.810196,344.065155 
	C97.337082,331.196960 95.535950,313.933228 103.003967,293.681610 
	C105.120026,287.943298 107.799614,282.412842 110.427063,276.474426 
z"/>
<path fill="#FEFEFF" opacity="1.000000" stroke="none" 
	d="
M275.075439,469.918335 
	C284.059570,476.060516 294.585663,479.470612 301.087219,488.402740 
	C300.803619,488.883362 300.708344,489.290436 300.463318,489.425232 
	C279.409454,501.006165 258.473969,512.813354 237.207535,523.990784 
	C229.959427,527.800293 222.098206,531.078674 214.129211,532.747986 
	C197.988449,536.129028 187.466675,527.026489 179.875153,514.197815 
	C166.269470,491.205933 153.323349,467.823730 139.713501,444.834381 
	C124.832031,419.697113 109.577866,394.779083 94.301003,369.879059 
	C92.258018,366.549194 93.041824,364.435547 95.116203,362.426666 
	C155.084930,398.265564 214.912277,434.020020 275.075439,469.918335 
z"/>
<path fill="#CBD8E7" opacity="1.000000" stroke="none" 
	d="
M98.179276,7.119581 
	C98.555191,6.836231 99.111122,6.681105 99.824608,6.716927 
	C99.441208,7.021184 98.900246,7.134494 98.179276,7.119581 
z"/>
<path fill="#CBD8E7" opacity="1.000000" stroke="none" 
	d="
M662.212769,5.846725 
	C662.260132,5.707119 662.563538,5.669442 662.943237,5.791958 
	C662.836060,5.950986 662.652405,5.949821 662.212769,5.846725 
z"/>
</svg>