<?xml version="1.0" encoding="UTF-8"?>
<!DOCTYPE svg PUBLIC "-//W3C//DTD SVG 1.1//EN" "http://www.w3.org/Graphics/SVG/1.1/DTD/svg11.dtd">
<!-- Creator: CorelDRAW -->
<svg xmlns="http://www.w3.org/2000/svg" xml:space="preserve" width="12.988mm" height="12.9786mm" version="1.1" style="shape-rendering:geometricPrecision; text-rendering:geometricPrecision; image-rendering:optimizeQuality; fill-rule:evenodd; clip-rule:evenodd"
viewBox="0 0 5672.1 5667.99"
 xmlns:xlink="http://www.w3.org/1999/xlink"
 xmlns:xodm="http://www.corel.com/coreldraw/odm/2003">
 <defs>
  <style type="text/css">
   <![CDATA[
    .fil0 {fill:#00539E}
    .fil2 {fill:#CFDAE8}
    .fil1 {fill:white}
   ]]>
  </style>
 </defs>
 <g id="Capa_x0020_1">
  <metadata id="CorelCorpID_0Corel-Layer"/>
  <g id="_2307182106224">
   <path class="fil0" d="M1979.86 4716.95l896.36 -508.91c300.29,-174.16 619.05,-332.87 894.44,-498.78 21.27,157.31 23.1,534.11 5.59,693.33 -30,272.86 -105.29,314.92 -384.88,322.12 -420.87,10.87 -999.52,22.97 -1411.52,-7.77zm2059.21 -219.54l-3.54 -2058.52c194.99,86.51 380.21,206.09 560.18,299.72 446.15,232.03 118.26,584.9 -227.27,1194.34 -92.63,163.42 -230.11,438.33 -329.37,564.46zm-3262.33 -1394.44c41.44,-63.8 -16.46,-57.6 221.5,85.2l1488.2 886.45c52.84,45.42 23.71,17.82 65.2,65.68 -195.78,72.28 -370.25,207.79 -566.77,309.59 -336.36,174.12 -426.85,-22.01 -540.88,-222.73 -70.62,-124.38 -633.33,-1112.06 -667.26,-1124.2zm818.19 -1889.85l8.43 2038.43c-148.7,-53.85 -483.84,-241.16 -596.78,-319.59 -354.05,-245.96 -110.53,-543.8 237.66,-1133.41l242.25 -427.46c12.49,-22.19 27.69,-52.36 39.17,-69.92 51.58,-79 9.83,-30.83 69.26,-88.04zm1484.67 374.01c137.13,-111.28 399.03,-266.97 546.2,-341.91 448.86,-228.49 518.04,157.7 910.03,810.24 111.06,184.91 249.02,385.88 323.13,563.63l-1779.36 -1031.97zm-1222.02 409.6c-6.46,-460.21 -135.3,-1004.32 362.65,-1021.18 345.23,-11.7 1123.59,-32.27 1437.59,12.36l-1800.24 1008.82zm3757.83 2779.89l6.99 -4733.89 -4817.83 10.87c-441.92,66.12 -749.67,386.54 -784.74,812.12 -38.87,471.66 -9.96,4206.73 -2.36,4775.95 1065.29,-26.81 2161.8,-2.84 3230.54,-2.84 961.65,0 2277.4,274.83 2367.41,-862.21z"/>
   <path class="fil1" d="M3657.82 987.9c-314,-44.63 -1092.36,-24.06 -1437.59,-12.36 -497.95,16.86 -369.11,560.96 -362.65,1021.18l1800.24 -1008.82z"/>
   <path class="fil1" d="M1979.86 4716.95c412,30.74 990.65,18.65 1411.52,7.77 279.59,-7.21 354.88,-49.26 384.88,-322.12 17.51,-159.23 15.68,-536.03 -5.59,-693.33 -275.39,165.91 -594.16,324.61 -894.44,498.78l-896.36 508.91z"/>
   <path class="fil1" d="M4039.08 4497.41c99.27,-126.12 236.74,-401.04 329.37,-564.46 345.53,-609.44 673.42,-962.31 227.27,-1194.34 -179.97,-93.63 -365.18,-213.21 -560.18,-299.72l3.54 2058.52z"/>
   <path class="fil1" d="M4858.97 2619.09c-74.11,-177.74 -212.07,-378.72 -323.13,-563.63 -392,-652.54 -461.17,-1038.73 -910.03,-810.24 -147.17,74.94 -409.07,230.63 -546.2,341.91l1779.36 1031.97z"/>
   <path class="fil1" d="M1594.94 1213.12c-59.44,57.21 -17.69,9.04 -69.26,88.04 -11.49,17.56 -26.68,47.73 -39.17,69.92l-242.25 427.46c-348.2,589.61 -591.71,887.46 -237.66,1133.41 112.94,78.43 448.07,265.74 596.78,319.59l-8.43 -2038.43z"/>
   <path class="fil1" d="M998.25 3188.17c-237.97,-142.81 -180.06,-149.01 -221.5,-85.2 33.93,12.14 596.64,999.82 667.26,1124.2 114.03,200.72 204.52,396.85 540.88,222.73 196.52,-101.8 370.99,-237.31 566.77,-309.59 -41.49,-47.86 -12.36,-20.26 -65.2,-65.68l-1488.2 -886.45z"/>
   <path class="fil2" d="M5622.4 42.71l-6.99 4733.89c50.83,-73.76 40.66,-2078.52 40.66,-2353.34 0,-163.94 52.93,-2239.58 -33.67,-2380.55 -198.27,-68.65 -4706.77,-46.69 -4817.83,10.87l4817.83 -10.87z"/>
  </g>
 </g>
</svg>
